<svg width="20" height="20" viewBox="0 0 20 20" fill="none" xmlns="http://www.w3.org/2000/svg">
<path d="M0.584786 10.1588L0.517953 10.1251C0.36758 10.041 0.250623 9.91482 0.167082 9.75497C0.0501245 9.53623 0 9.33431 0 9.12399L0.0167082 9.01462C0.0167082 8.84636 0.0584786 8.69492 0.133665 8.5519L0.200498 8.4257C0.233914 8.3584 0.284039 8.29951 0.325809 8.24061C0.375934 8.18172 0.384288 8.106 0.36758 8.0387L0.325809 7.90409C0.275685 7.73583 0.242268 7.56757 0.242268 7.39931L0.217206 7.29835C0.217206 7.11326 0.267331 6.92817 0.384288 6.79356L0.467829 6.68419C0.526307 6.60006 0.618202 6.54958 0.718451 6.51593C0.801992 6.49069 0.860471 6.40656 0.868825 6.3056L0.885533 6.01956C0.885533 5.79241 0.994136 5.58208 1.16122 5.43064L1.36172 5.27921C1.40349 5.23714 1.44526 5.19508 1.47867 5.12777C1.52044 5.07729 1.5288 5.00999 1.52044 4.95951C1.50374 4.87538 1.52044 4.85014 1.56221 4.84173C1.69588 4.89221 1.77942 4.87538 1.8379 4.80808L1.9465 4.66505L2.24725 4.32853C2.33079 4.2444 2.36421 4.09296 2.31408 3.97518L2.21383 3.75644C2.19712 3.70596 2.21383 3.64707 2.2556 3.63024C2.36421 3.63024 2.43939 3.67231 2.47281 3.73961L2.50623 3.79851C2.55635 3.89946 2.67331 3.94994 2.75685 3.90788C2.94064 3.84057 3.09101 3.82375 3.23303 3.82375H3.50036C3.68415 3.82375 3.83452 3.69755 3.86794 3.50405C3.90136 3.26848 3.9849 3.08339 4.10186 2.9572C4.22717 2.81418 4.36919 2.70481 4.53627 2.62068C4.75347 2.50289 4.88714 2.33463 4.92891 2.11589C4.98739 1.84667 5.12941 1.65317 5.32155 1.52697L5.95646 1.16521L6.14025 1.05584C6.24886 0.988537 6.3491 0.904406 6.43265 0.803449L6.59973 0.601535C6.68327 0.517404 6.76681 0.458513 6.86706 0.433274C6.9506 0.408034 7.06756 0.391208 7.1678 0.399621L7.50197 0.424861C7.66905 0.424861 7.80271 0.466926 7.93638 0.525818L8.01992 0.567883C8.10346 0.601535 8.187 0.584709 8.22877 0.525818L8.30396 0.483752L8.66319 0.105164C8.74673 0.0210327 8.84698 -0.0126196 8.95558 0.00420654C9.06418 0.0210327 9.17278 0.0630981 9.27303 0.113577C9.42341 0.197707 9.54872 0.23136 9.69074 0.23136H9.77428C9.95807 0.23136 10.1419 0.256599 10.3256 0.298664L10.451 0.332317C10.5763 0.365969 10.7016 0.315491 10.7851 0.214534C10.8102 0.172468 10.8687 0.164055 10.9021 0.197707C10.9271 0.214534 10.9355 0.23136 10.9439 0.256599C10.9606 0.424861 11.0608 0.551057 11.1945 0.593122L11.3281 0.635188C11.4702 0.677253 11.5955 0.769797 11.679 0.88758C11.7626 1.01378 11.8628 1.13997 11.9798 1.2241L12.0633 1.30823C12.1468 1.39236 12.2638 1.42602 12.3808 1.4176H12.8736C13.0741 1.4176 13.2663 1.45126 13.4584 1.53539C13.6422 1.61952 13.8344 1.63634 14.0098 1.56904C14.1936 1.51015 14.3857 1.48491 14.5779 1.51015L14.9371 1.56904C15.1042 1.58587 15.2713 1.67 15.3715 1.79619L15.4133 1.83826C15.4968 1.92239 15.5804 2.03176 15.6639 2.14954C15.714 2.25891 15.831 2.3178 15.9479 2.3178H16.4659C16.5912 2.3178 16.7165 2.34304 16.8168 2.40193C16.9254 2.48607 17.0173 2.5702 17.1008 2.65433L17.1844 2.7637C17.2846 2.88148 17.3347 3.04133 17.3264 3.20959C17.3264 3.3442 17.4266 3.46198 17.5603 3.46198L17.7274 3.47881C17.8443 3.47881 17.9446 3.56294 18.0031 3.67231L18.0866 3.84057L18.3038 4.32853C18.3372 4.41266 18.3456 4.49679 18.3372 4.5641C18.3372 4.64823 18.3623 4.71553 18.4208 4.74918L18.5043 4.80808C18.6129 4.89221 18.6714 5.0184 18.6547 5.16143L18.5962 5.55684L18.5795 5.7251C18.5628 5.80923 18.6045 5.9186 18.6797 5.97749C18.805 6.06163 18.8635 6.171 18.8719 6.29719V6.46545C18.8719 6.54958 18.8552 6.65054 18.7883 6.71785C18.7382 6.78515 18.7048 6.86928 18.7048 6.97024L18.7299 7.16374C18.7299 7.29835 18.8134 7.41613 18.8969 7.50026C19.0139 7.58439 19.0807 7.719 19.0974 7.85361C19.1309 8.06394 19.1392 8.2322 19.1392 8.40046V8.59396C19.1392 8.66127 19.1392 8.72857 19.1643 8.79588C19.181 8.85477 19.2227 8.91366 19.2729 8.94731L19.44 9.07351C19.607 9.18288 19.724 9.3259 19.7908 9.5194C19.8744 9.70449 19.8994 9.89799 19.8994 10.0915V10.1588C19.8994 10.3102 19.8827 10.4701 19.8326 10.6131C19.7908 10.7645 19.7992 10.9076 19.8577 11.0338C19.9245 11.1515 19.9663 11.2861 19.983 11.4292C20.0164 11.5974 19.9997 11.7657 19.9412 11.9003L19.9245 11.9592C19.8827 12.0602 19.8159 12.1527 19.7323 12.2284C19.6488 12.3125 19.5653 12.363 19.5151 12.4219C19.465 12.4724 19.4316 12.5565 19.4567 12.6322L19.4817 12.75C19.5235 12.9183 19.5235 13.0865 19.4817 13.238V13.3053C19.4483 13.4315 19.3982 13.5409 19.3481 13.6418C19.2896 13.7512 19.206 13.8353 19.0974 13.8942L18.9721 13.9783C18.9136 14.012 18.8719 14.0877 18.8719 14.1634C18.8719 14.2476 18.8385 14.3317 18.7883 14.3822L18.663 14.5504C18.5795 14.6598 18.4709 14.7523 18.3539 14.8028C18.237 14.8869 18.1367 14.9711 18.0615 15.0552C17.978 15.1562 17.9112 15.2739 17.8777 15.3917C17.8443 15.5432 17.7274 15.6273 17.6021 15.6273H17.1509C17.034 15.6273 16.9254 15.7114 16.8753 15.8124C16.8168 15.947 16.7583 16.0395 16.6831 16.1237C16.5996 16.2078 16.5494 16.3088 16.516 16.4265C16.4993 16.5275 16.4158 16.5948 16.3322 16.5612C16.2236 16.5107 16.115 16.5612 16.0649 16.6453C15.9647 16.8135 15.8644 16.9397 15.7558 17.0491L15.6973 17.0996C15.5887 17.1837 15.4467 17.251 15.3214 17.251C15.171 17.251 15.0958 17.3183 15.0708 17.4193C15.0457 17.5034 15.029 17.6128 15.0206 17.7053C15.0039 17.8063 14.9705 17.8988 14.9371 17.983L14.8953 18.0334C14.8118 18.1596 14.745 18.2858 14.6614 18.3952L14.628 18.4457C14.5194 18.5887 14.3774 18.6981 14.2103 18.7401C14.0098 18.8074 13.8344 18.8243 13.6589 18.8243H13.542C13.4584 18.8243 13.3749 18.8747 13.3164 18.9589L13.2663 19.043L13.2162 19.144L13.1076 19.3291C13.024 19.4805 12.8987 19.5814 12.7316 19.6319C12.5645 19.674 12.3724 19.6908 12.197 19.6824L12.0633 19.6656C11.9463 19.6656 11.8377 19.6319 11.7291 19.5814C11.6456 19.5478 11.5286 19.5814 11.4785 19.6656C11.395 19.7834 11.2947 19.8507 11.1861 19.8843L10.9355 19.9685C10.7684 20.0105 10.5846 20.0105 10.4092 19.9685L10.2755 19.9264C10.192 19.9264 10.1084 19.8843 10.0416 19.8423C9.95807 19.8002 9.87453 19.7834 9.79099 19.7918L9.68238 19.8086C9.5153 19.8254 9.36493 19.8086 9.21455 19.7665L8.98899 19.7161C8.88875 19.6824 8.79685 19.6151 8.73837 19.5226C8.6966 19.4384 8.60471 19.3711 8.48775 19.3543H8.22042C8.05334 19.3291 7.90296 19.2702 7.80271 19.144L7.46855 18.8243L7.35159 18.7233L7.1678 18.5887L7.0592 18.5046C6.93389 18.4204 6.78352 18.3531 6.62479 18.3363L6.12354 18.2522C6.07342 18.2522 6.04 18.2354 5.98988 18.2269L5.79773 18.1849C5.71419 18.1681 5.63065 18.1007 5.57217 18.0166C5.52205 17.9325 5.43015 17.8988 5.34661 17.9325C5.17953 17.9998 5.04587 18.0166 4.9122 18.0419H4.79524C4.57804 18.0587 4.37754 18.025 4.17704 17.9325C3.97654 17.8484 3.84288 17.7222 3.71757 17.5623C3.61732 17.4193 3.46695 17.3099 3.28316 17.2763L3.04924 17.2258C2.88216 17.1921 2.71508 17.1248 2.5647 17.0239C2.39762 16.9061 2.31408 16.7967 2.24725 16.6621C2.18042 16.5359 2.13865 16.3929 2.13029 16.2415V16.1742C2.11358 16.0059 1.99663 15.8545 1.8379 15.8124C1.64575 15.7535 1.50374 15.6694 1.37842 15.56C1.26147 15.4506 1.19463 15.2908 1.19463 15.1225L1.21134 14.7523C1.21134 14.6093 1.16957 14.4831 1.06932 14.3906C0.969074 14.2896 0.902241 14.1634 0.902241 14.0288L0.877179 13.7259C0.860471 13.5072 0.8187 13.2885 0.768576 13.0697C0.718451 12.8762 0.793638 12.6827 0.952366 12.5902L1.01084 12.5481C1.09439 12.4892 1.1278 12.3799 1.07768 12.2789L1.01084 12.1948C0.927303 12.1106 0.843763 12.0517 0.760222 12.0265C0.693389 12.0097 0.676681 11.9424 0.676681 11.9003L0.760222 11.7993C0.810346 11.7405 0.801992 11.6479 0.760222 11.5974C0.693389 11.5301 0.659973 11.446 0.651619 11.3619L0.63491 10.773C0.63491 10.6552 0.651619 10.5374 0.685035 10.4196C0.718451 10.3186 0.685035 10.2009 0.584786 10.1504V10.1588ZM8.85533 9.04827C8.91381 8.98938 8.90545 8.88001 8.85533 8.83794C8.77179 8.77064 8.71331 8.69492 8.66319 8.61079L8.57964 8.47618C8.52117 8.36681 8.44598 8.27427 8.36244 8.19014L8.34573 8.17331C8.26219 8.106 8.20371 8.02187 8.15359 7.92092C8.11182 7.83679 8.11182 7.75265 8.15359 7.66852L8.20371 7.58439C8.25384 7.50026 8.28725 7.38248 8.28725 7.28152V7.24787C8.28725 7.16374 8.25384 7.07961 8.20371 6.99548C8.17029 6.92817 8.13688 6.84404 8.12017 6.75991V6.70943C8.09511 6.60848 8.12017 6.49911 8.187 6.41497C8.25383 6.3056 8.30396 6.20465 8.32902 6.07845V6.06163C8.36244 5.97749 8.34573 5.86812 8.29561 5.78399C8.24548 5.69986 8.22877 5.61573 8.26219 5.51477L8.32067 5.34651C8.37079 5.19508 8.44598 5.06047 8.54623 4.94269L8.66319 4.81649L8.74673 4.71553L8.79685 4.66505C8.84698 4.61458 8.85533 4.53044 8.81356 4.46314C8.77179 4.37901 8.74673 4.29488 8.76343 4.21075L8.78014 4.09296C8.8052 3.9247 8.86368 3.75644 8.97229 3.62183L9.0057 3.58818C9.13101 3.41992 9.28974 3.31055 9.47353 3.25166L9.69909 3.16753C9.79934 3.13387 9.86617 3.0245 9.86617 2.91513C9.86617 2.78052 9.90794 2.66274 9.98313 2.55337L10.0249 2.5113C10.1084 2.36828 10.2087 2.22526 10.2755 2.07382L10.334 1.96445C10.3507 1.93922 10.3591 1.90556 10.3591 1.88032C10.3591 1.7373 10.2755 1.61111 10.1419 1.60269L9.77428 1.57745C9.56543 1.56063 9.35658 1.57745 9.15608 1.57745L8.44598 1.66158C8.33738 1.66158 8.25384 1.74571 8.24548 1.8635C8.24548 1.98128 8.16194 2.08224 8.06169 2.11589L7.76094 2.20002L7.6774 2.22526L7.42678 2.30939C7.24299 2.36828 7.09262 2.50289 7.00908 2.68798L6.94224 2.79735C6.8587 2.98244 6.71668 3.13387 6.54125 3.24324C6.37417 3.35261 6.29063 3.52929 6.27392 3.7312V3.81533C6.25721 3.98359 6.20708 4.15186 6.10684 4.26964L6.06507 4.33694C5.99823 4.42107 5.98152 4.53044 6.02329 4.62299C6.06507 4.72395 6.09013 4.83332 6.08177 4.94269V5.38858C6.08177 5.50636 5.99823 5.60732 5.91469 5.64097C5.79773 5.68304 5.72255 5.77558 5.68913 5.89336L5.64736 6.06163C5.61395 6.22989 5.67242 6.39815 5.81444 6.49911C5.94811 6.60006 6.03165 6.7515 6.06507 6.93659V7.08802C6.09013 7.25628 6.18202 7.42454 6.3324 7.50868C6.48277 7.60963 6.59973 7.76107 6.66656 7.92933L6.70833 8.06394C6.77516 8.24903 6.92554 8.3584 7.09262 8.37522H7.14274C7.29312 8.37522 7.42678 8.45935 7.51032 8.59396C7.59386 8.72857 7.72753 8.82112 7.8779 8.84636L8.11182 8.91366C8.25384 8.95573 8.3875 9.03144 8.4961 9.14081L8.51281 9.15764C8.59635 9.22494 8.73002 9.21653 8.80521 9.12399L8.86368 9.05668L8.85533 9.04827ZM9.8077 8.27427C9.89124 8.32474 9.97478 8.29951 10.0082 8.22379L10.0333 8.18172C10.0917 8.06394 10.1669 7.94616 10.2505 7.8452L10.4175 7.59281C10.4426 7.59281 10.451 7.57598 10.4593 7.55915L10.6598 7.28994C10.7434 7.2058 10.8436 7.14691 10.9606 7.14691C11.0692 7.14691 11.1611 7.08802 11.2112 6.97865C11.2446 6.86087 11.2947 6.7515 11.395 6.65895L11.4367 6.60848C11.5203 6.52434 11.6038 6.48228 11.6874 6.44021C11.796 6.42339 11.8962 6.40656 11.9965 6.40656H12.2471C12.3473 6.40656 12.4309 6.3645 12.481 6.28037C12.5311 6.19623 12.6063 6.13734 12.6899 6.09528L12.7734 6.06163C12.9071 6.00273 13.0574 5.96067 13.2078 5.94384L13.3749 5.92702C13.4751 5.92702 13.5837 5.92702 13.684 5.98591C13.7675 6.0448 13.8761 6.03639 13.9597 5.96908L14.0182 5.93543C14.1435 5.8513 14.2855 5.78399 14.4359 5.76717H14.4526C14.6196 5.73352 14.77 5.73352 14.9371 5.74193H15.0206C15.1877 5.76717 15.3297 5.82606 15.4383 5.95226L15.4634 5.98591C15.547 6.07004 15.6806 6.13734 15.7976 6.13734H15.9396C15.9814 6.13734 16.0231 6.12052 16.0482 6.07845C16.0733 6.05321 16.115 6.02797 16.1568 6.02797H16.2403C16.3573 6.02797 16.4659 6.06163 16.5745 6.09528L16.7165 6.15417C16.8502 6.19623 16.9922 6.2383 17.1342 6.25513H17.2345C17.3013 6.25513 17.3431 6.21306 17.3431 6.15417C17.3431 6.07004 17.3264 5.98591 17.2846 5.9186L17.2261 5.78399C17.1593 5.67462 17.1092 5.55684 17.059 5.44747L17.0423 5.40541C17.0006 5.32127 17.0006 5.23714 17.0423 5.15301V5.11095C17.059 5.04364 17.0256 4.96792 16.9588 4.94269H16.892C16.7583 4.90062 16.6413 4.8249 16.5578 4.71553L16.4743 4.6314C16.3907 4.54727 16.3406 4.42107 16.3072 4.29488C16.2654 4.18551 16.1735 4.10138 16.0566 4.10138H15.7057C15.5804 4.08455 15.4718 4.01725 15.3966 3.91629L15.3632 3.87422C15.3047 3.79009 15.2546 3.68914 15.2211 3.58818C15.1794 3.50405 15.0875 3.45357 15.0039 3.47881L14.9037 3.51246C14.7366 3.57135 14.5695 3.59659 14.4024 3.57977L14.2688 3.56294C14.1268 3.56294 13.9931 3.50405 13.8845 3.41992L13.8009 3.36103C13.7341 3.31055 13.6673 3.2769 13.5921 3.24324C13.5086 3.20959 13.4417 3.22642 13.3916 3.28531L13.3498 3.33579C13.2663 3.41992 13.1493 3.48722 13.0324 3.50405L12.5813 3.52929C12.4977 3.52929 12.4142 3.57135 12.3557 3.63024C12.2889 3.68914 12.2137 3.7312 12.1301 3.74803H12.1134C12.0299 3.74803 11.9463 3.80692 11.8628 3.86581V3.88264C11.7793 3.96677 11.6707 4.00883 11.5621 4.00883L11.5286 4.02566C11.4284 4.02566 11.3281 4.02566 11.2279 4.0509H11.1276C10.9856 4.07614 10.877 4.19392 10.8436 4.34536L10.8102 4.53886C10.7851 4.67347 10.7266 4.79125 10.6431 4.90062C10.5596 5.00158 10.4593 5.06888 10.334 5.06888H10.2087H10.192C10.1084 5.08571 10.0249 5.17825 10.0416 5.27921C10.0583 5.42223 10.0416 5.54843 10.0165 5.67462L9.98313 5.81765C9.94971 5.94384 9.86617 6.0448 9.75757 6.08686L9.70745 6.1121H9.69074C9.64061 6.14576 9.6072 6.22147 9.64897 6.28037C9.69909 6.3645 9.7158 6.44863 9.70745 6.53276L9.68238 6.80198C9.68238 6.90293 9.64061 6.99548 9.59884 7.07961C9.54872 7.16374 9.54872 7.24787 9.58213 7.332L9.66568 7.51709C9.70745 7.60122 9.7158 7.68535 9.69074 7.78631C9.66568 7.87044 9.64897 7.95457 9.65732 8.0387C9.65732 8.12283 9.70745 8.20696 9.77428 8.24061L9.79099 8.25744L9.8077 8.27427ZM16.4074 14.3569C16.491 14.4411 16.6163 14.4747 16.7165 14.4074L16.8836 14.298C16.9671 14.2391 17.034 14.155 17.0674 14.0456V14.0288L17.1509 13.7764L17.2011 13.6923L17.2345 13.6082L17.2679 13.5493C17.3013 13.482 17.3514 13.4315 17.435 13.4062L17.4684 13.3894C17.5352 13.3726 17.577 13.3053 17.577 13.238C17.577 13.1539 17.6188 13.0865 17.6605 13.0277L17.7274 12.9688L17.8944 12.75V12.7332C17.9446 12.6659 17.978 12.5902 17.9947 12.506C18.0114 12.4219 17.9947 12.3378 17.9613 12.2537L17.9446 12.22C17.9112 12.1359 17.8944 12.077 17.8861 12.0013L17.861 11.7657L17.836 11.5133C17.836 11.4292 17.8694 11.345 17.9195 11.2609C17.978 11.1936 18.0198 11.1095 18.0532 11.0253V10.9917L18.0699 10.9749C18.0866 10.8907 18.0448 10.8066 17.9696 10.8066C17.8861 10.7645 17.8026 10.6972 17.7775 10.5963L17.7524 10.5458C17.7107 10.3944 17.6856 10.2429 17.6856 10.0915L17.7023 9.67084V9.6456C17.7023 9.50258 17.5853 9.39321 17.4517 9.39321H17.435C17.2679 9.39321 17.1342 9.34273 17.0173 9.22494L16.9504 9.14081L16.7834 8.94731L16.5661 8.69492C16.4826 8.57714 16.3991 8.47618 16.2905 8.37522C16.2069 8.29109 16.0816 8.20696 15.9563 8.19014L15.7892 8.1649C15.7057 8.14807 15.5971 8.106 15.5052 8.04711C15.4383 7.99663 15.3381 8.01346 15.2713 8.08076L15.1627 8.19855L15.1125 8.2322C15.0541 8.24903 14.9956 8.21537 14.9705 8.14807C14.9371 8.04711 14.9371 7.92933 14.9872 7.82837V7.77789C14.9872 7.719 14.9371 7.67694 14.887 7.69376H14.7533C14.6029 7.69376 14.4526 7.67694 14.3105 7.60963L14.227 7.57598C14.1435 7.53392 14.0432 7.50868 13.9513 7.50868C13.8678 7.50868 13.7842 7.5255 13.7007 7.57598L13.6673 7.60122C13.567 7.66852 13.4501 7.70218 13.3331 7.71059H13.0574C12.9321 7.71059 12.8068 7.75266 12.7233 7.81996C12.6147 7.88726 12.4977 7.92933 12.3724 7.95457L12.1468 7.98822C12.0466 8.01346 11.938 8.05553 11.8461 8.13124C11.7626 8.21537 11.6456 8.26585 11.537 8.29951L11.4952 8.31633C11.3616 8.3584 11.2446 8.44253 11.1611 8.56872L11.0608 8.66968C11.0023 8.75381 11.0023 8.85477 11.0608 8.9389C11.1109 9.02303 11.2112 9.04827 11.3114 9.02303L11.4367 8.97255C11.5036 8.94731 11.5788 8.97255 11.6372 9.0062C11.6874 9.04827 11.7626 9.07351 11.8377 9.06509L12.0466 9.03986C12.1635 9.03986 12.2805 9.03986 12.3975 9.07351C12.5228 9.11557 12.6314 9.15764 12.7316 9.24177C12.8319 9.3259 12.9405 9.35955 13.0658 9.37638C13.1911 9.39321 13.3164 9.41844 13.4334 9.46051L13.5169 9.47734C13.6004 9.50258 13.6673 9.56147 13.7174 9.6456C13.7592 9.7129 13.8009 9.81386 13.8009 9.89799V9.92323C13.8009 10.0242 13.8845 10.0915 13.968 10.0915H14.0182C14.1518 10.0915 14.2938 10.1083 14.4359 10.1504L14.4943 10.1756C14.5779 10.2093 14.6614 10.2598 14.7199 10.3439C14.7867 10.428 14.8285 10.5121 14.8536 10.5963L14.8786 10.7141C14.9037 10.8403 14.912 10.9665 14.912 11.1011V11.1431C14.912 11.2273 14.9705 11.3114 15.0624 11.345C15.146 11.3619 15.2462 11.3955 15.3381 11.446L15.3799 11.4628C15.4885 11.5301 15.5971 11.6143 15.6806 11.7152L15.7224 11.7741C15.831 11.9003 15.8895 12.0602 15.8895 12.22V12.2789C15.8895 12.4051 15.8644 12.5313 15.8226 12.6491C15.7892 12.75 15.8226 12.8678 15.9312 12.9015L15.9897 12.9435C16.115 12.994 16.2236 13.0865 16.3072 13.1959C16.3907 13.3221 16.4241 13.4651 16.4241 13.6166V13.869C16.4074 13.9531 16.3824 14.0204 16.3406 14.0793C16.2988 14.1382 16.2988 14.2223 16.3406 14.2812L16.3907 14.3653L16.4074 14.3569ZM11.0608 10.0494H11.0441C11.0107 10.0494 10.994 10.0915 11.0023 10.1336L11.0357 10.3018C11.0692 10.4364 11.0859 10.571 11.1026 10.7056C11.1193 10.8403 11.1861 10.958 11.2864 11.0422H11.3198C11.4451 11.1431 11.5203 11.2946 11.5286 11.446V11.8667C11.5119 11.9508 11.5286 12.0349 11.5788 12.1022L11.6205 12.1443C11.7041 12.2452 11.7375 12.363 11.7458 12.4808L11.7709 12.9435C11.7709 13.0529 11.7041 13.1454 11.6038 13.1623L11.5203 13.1791C11.4618 13.1791 11.4367 13.2464 11.4367 13.3053C11.4367 13.3726 11.4618 13.4483 11.4869 13.5156V13.5324C11.5119 13.6166 11.5203 13.7007 11.5119 13.7848L11.4785 14.012C11.4451 14.1803 11.395 14.3317 11.3114 14.4831L11.253 14.5841C11.2112 14.6682 11.1527 14.7187 11.0859 14.7523C11.0023 14.786 10.9439 14.8533 10.9188 14.9374L10.852 15.2403C10.8102 15.4086 10.735 15.5768 10.6347 15.7451H10.618C10.5178 15.8797 10.3925 15.9975 10.2421 16.0816L10.1419 16.1489L9.89124 16.2751C9.80769 16.3088 9.75757 16.3845 9.74086 16.477L9.69909 16.7547C9.67403 16.9229 9.61555 17.0659 9.49859 17.1753L9.38999 17.3015L9.26468 17.4277L9.13937 17.5623C9.03912 17.6801 8.88875 17.7306 8.72166 17.7053L8.42092 17.6464L8.14523 17.6128H8.07005C8.03663 17.6464 8.02827 17.6969 8.05334 17.7474C8.11182 17.8484 8.20371 17.9157 8.30396 17.9157L8.48775 17.9493C8.57129 17.9493 8.67154 17.9914 8.75508 18.0334C8.83862 18.0923 8.92216 18.1344 9.02241 18.1596H9.03912C9.14772 18.2017 9.26468 18.2101 9.37328 18.2017L9.49859 18.1849C9.64061 18.1681 9.77428 18.1849 9.89124 18.2354L9.99148 18.269C10.0333 18.2858 10.1001 18.269 10.1419 18.2269C10.192 18.1765 10.2421 18.1428 10.3089 18.1176L10.3758 18.1007C10.4844 18.0671 10.593 18.0503 10.7099 18.0503H10.7768C10.877 18.0503 10.9689 18.0671 11.0525 18.1176L11.0859 18.1344C11.1443 18.1596 11.2112 18.1344 11.253 18.0839C11.278 18.025 11.3365 17.9661 11.395 17.9157L11.6038 17.7726L11.7375 17.6885L11.8043 17.6464C11.8879 17.5875 12.0048 17.5623 12.1051 17.5623L12.4058 17.5371C12.5228 17.5202 12.623 17.4361 12.6564 17.3183C12.6899 17.1921 12.74 17.0659 12.8235 16.9566C12.9071 16.8472 12.9906 16.7547 13.0741 16.6705C13.1827 16.5864 13.2913 16.5443 13.4083 16.5359H13.4751C13.6088 16.5107 13.7091 16.3845 13.7007 16.2499V16.233V15.6862C13.7174 15.6021 13.7508 15.4927 13.8009 15.4086L13.968 15.1562L14.0349 15.072C14.085 15.03 14.1184 14.9711 14.1769 14.9038L14.2604 14.7944C14.3105 14.7103 14.3105 14.6009 14.2437 14.5252C14.1602 14.4411 14.1184 14.3233 14.1017 14.2055V14.1718C14.085 14.0372 14.085 13.8942 14.1268 13.7512V13.7091C14.1685 13.5997 14.227 13.4904 14.2938 13.3894C14.3607 13.3053 14.3523 13.1875 14.2688 13.1202L14.1268 12.994C14.0098 12.893 13.943 12.7416 13.9263 12.5902L13.9096 12.4219C13.9096 12.3714 13.9096 12.3125 13.8928 12.2537L13.8761 12.1275C13.8594 11.9844 13.7759 11.8751 13.6589 11.7909L13.6005 11.7741C13.5169 11.7236 13.4334 11.6479 13.3665 11.547C13.2997 11.4628 13.2663 11.345 13.2412 11.2273L13.2162 11.0842C13.2162 11.0338 13.1827 11.0001 13.1326 10.9749L12.999 10.9328L12.7316 10.8487C12.6481 10.8318 12.5645 10.7645 12.5061 10.7056H12.4894C12.4392 10.6383 12.3557 10.6383 12.3056 10.6888L12.222 10.773C12.2053 10.7982 12.1886 10.8066 12.1635 10.7982C12.1134 10.7982 12.08 10.7561 12.0967 10.7141C12.1134 10.5794 12.0633 10.4448 11.9547 10.3607L11.8461 10.2766L11.5955 10.1083C11.5286 10.0831 11.4284 10.1083 11.395 10.1924L11.3616 10.2429C11.3616 10.2598 11.3365 10.2682 11.3281 10.2766C11.2947 10.2766 11.2446 10.2766 11.2446 10.2345L11.2195 10.1924C11.1945 10.142 11.136 10.1083 11.0859 10.0915L11.0608 10.0494ZM10.0583 10.8907L10.0165 10.8487C9.97478 10.815 9.93301 10.8234 9.89124 10.8655C9.83276 10.9665 9.78263 11.0758 9.75757 11.1852V11.202C9.73251 11.3114 9.63226 11.3871 9.53201 11.3703H9.44847H9.43176C9.3148 11.3703 9.22291 11.4712 9.22291 11.589C9.22291 11.7405 9.17278 11.8919 9.08089 12.0097L9.03076 12.0602C8.94722 12.1695 8.82191 12.2452 8.6966 12.2873L8.62977 12.3041C8.54623 12.3294 8.47939 12.3883 8.46269 12.4892C8.46269 12.5734 8.41256 12.6575 8.34573 12.7248L8.26219 12.7921C8.16194 12.9015 8.01157 12.9604 7.86119 12.9772L7.44349 13.0192C7.30982 13.0192 7.19287 13.1034 7.10933 13.2296C7.02578 13.3558 6.90047 13.4399 6.77516 13.4567L6.59137 13.4735C6.45771 13.4904 6.31569 13.4904 6.17367 13.4567L6.09013 13.4399L5.86457 13.381C5.78103 13.3558 5.71419 13.381 5.66407 13.4399L5.58053 13.5493C5.47193 13.6755 5.3132 13.7344 5.16282 13.7175L4.61981 13.6502C4.53627 13.6502 4.46944 13.6082 4.39425 13.5661C4.31071 13.5156 4.25223 13.4567 4.19375 13.3978L3.9849 13.1454C3.95984 13.1286 3.91807 13.1202 3.8763 13.1286L3.75934 13.1791L3.29151 13.2969C3.20797 13.3221 3.09937 13.2969 3.01582 13.2464C2.93228 13.1791 2.83203 13.1623 2.73179 13.1623H2.62318C2.52293 13.1875 2.4561 13.2969 2.48952 13.3978L2.52293 13.5661C2.548 13.6502 2.53964 13.7512 2.49787 13.8353C2.4561 13.9194 2.46445 14.0036 2.52293 14.0877L2.57306 14.155C2.63989 14.256 2.74014 14.3401 2.82368 14.4242C2.90722 14.5084 2.99076 14.5925 3.0576 14.7019L3.18291 14.929C3.24974 15.0468 3.34999 15.1141 3.48365 15.1141C3.60896 15.1141 3.73428 15.1562 3.83452 15.2403L4.08515 15.4759C4.15198 15.5348 4.25223 15.5432 4.31906 15.4927L4.36083 15.4759C4.41096 15.4759 4.44437 15.5095 4.44437 15.56V15.6021C4.44437 15.7114 4.52791 15.8124 4.63652 15.8545L5.01245 15.9386C5.14612 15.9806 5.27978 16.0227 5.40509 16.1068H5.47193C5.53876 16.1068 5.59724 16.048 5.58888 15.9722V15.6778C5.58888 15.5936 5.6223 15.5095 5.68913 15.4759L5.7309 15.459C5.77267 15.4759 5.81444 15.5095 5.79773 15.5432V15.6862C5.79773 15.7956 5.83115 15.8965 5.90634 15.9722C5.98988 16.0564 6.09848 16.0732 6.19038 16.0395C6.29063 15.9975 6.39087 15.9891 6.49948 15.9975L6.80858 16.0143C6.95895 16.0311 7.10097 16.0143 7.22628 15.9554C7.37666 15.9049 7.50197 15.8376 7.61893 15.7451L7.66905 15.7114L7.91967 15.4843C8.00321 15.4001 8.11182 15.3581 8.21206 15.3581H8.54623C8.71331 15.3413 8.86368 15.1898 8.88039 15.0216L8.91381 14.8533C8.91381 14.7439 8.96393 14.643 9.03912 14.5588C9.12266 14.4747 9.2062 14.4242 9.28974 14.3906L9.38999 14.3485C9.53201 14.2896 9.64061 14.1634 9.69074 14.012L9.74086 13.8101C9.78263 13.6418 9.86617 13.4736 9.99148 13.3642L10.0082 13.3474C10.1084 13.2632 10.1252 13.095 10.0583 12.9772L10.0333 12.9183C9.97478 12.8342 9.96642 12.708 10.0082 12.5986C10.05 12.4808 10.0917 12.3799 10.1586 12.2789L10.2421 12.1611C10.2755 12.0938 10.2755 11.9928 10.2254 11.934C10.1753 11.8667 10.1419 11.7825 10.1419 11.6984L10.1252 11.5806V11.2946C10.1419 11.2104 10.1251 11.1011 10.1001 11.0169L10.0667 10.916L10.0583 10.8907ZM8.86368 10.2513V10.2261C8.86368 10.142 8.81356 10.0915 8.74673 10.0915H8.52952C8.44598 10.1083 8.36244 10.1083 8.29561 10.0915H7.91967C7.72753 10.0915 7.54374 10.0578 7.35995 10.0074L7.15945 9.95688L6.99237 9.9064L6.61644 9.78021C6.41594 9.72132 6.26556 9.58671 6.17367 9.40162L6.1319 9.31749C6.07342 9.19129 5.94811 9.12399 5.8228 9.14923C5.68078 9.14923 5.53876 9.14923 5.40509 9.08192L5.30484 9.03986C5.1127 8.95573 4.97068 8.78746 4.97068 8.56031L4.93726 8.33316C4.9122 8.21537 4.83702 8.106 4.73677 8.06394C4.61981 8.01346 4.51121 7.94616 4.4026 7.87044L4.36083 7.8452C4.23552 7.74424 4.12692 7.60963 4.06844 7.44978L4.05173 7.39931C4.00996 7.2647 4.00161 7.12167 4.03502 6.97865L4.05173 6.92817C4.08515 6.8188 4.0935 6.70943 4.0935 6.59165C4.0935 6.49069 4.05173 6.38974 3.97654 6.31402L3.85959 6.20465C3.72592 6.09528 3.64238 5.93543 3.63403 5.75875C3.61732 5.57367 3.61732 5.39699 3.65073 5.22032V5.19508V5.16984C3.65073 5.06888 3.56719 5.00158 3.48365 5.00158H3.45859C3.34999 5.00158 3.25809 5.06888 3.20797 5.16984C3.1662 5.28762 3.09937 5.38017 3.02418 5.47271L2.99076 5.51477L2.82368 5.68304L2.74014 5.76717C2.6566 5.8513 2.60647 5.97749 2.58977 6.10369C2.57306 6.22989 2.53964 6.35608 2.48952 6.47387L2.47281 6.51593C2.43104 6.61689 2.36421 6.70943 2.28067 6.76832C2.19712 6.83563 2.13865 6.93659 2.13865 7.03754L2.12194 7.42454C2.12194 7.59281 2.09688 7.76107 2.0384 7.92933L2.02169 7.99663C1.97992 8.106 2.02169 8.22379 2.12194 8.27427L2.47281 8.4257L2.50623 8.44253C2.53129 8.44253 2.53964 8.45935 2.548 8.48459C2.57306 8.51825 2.548 8.56872 2.52293 8.56872L2.43939 8.61079C2.38927 8.62761 2.35585 8.67809 2.33914 8.73699L2.32244 8.82112V8.83794L2.23889 9.30907C2.22219 9.37638 2.22219 9.4521 2.22219 9.52781C2.22219 9.59512 2.26396 9.65401 2.32244 9.67925L2.50623 9.76338C2.58977 9.81386 2.69002 9.87275 2.75685 9.93164L2.84039 9.99895C2.86545 10.0326 2.90722 10.0663 2.94064 10.0831L2.97405 10.1167C3.03253 10.1672 3.0743 10.2345 3.09101 10.3102L3.17455 10.6888C3.17455 10.7898 3.25809 10.8739 3.34163 10.8991L3.4753 10.9412C3.4753 10.9412 3.50036 10.9412 3.51707 10.958L3.68415 11.0085C3.81782 11.0506 3.93477 11.1263 4.03502 11.2273C4.13527 11.3114 4.23552 11.4208 4.31906 11.5385L4.35248 11.5722C4.41931 11.6563 4.51956 11.6984 4.61981 11.6732C4.72006 11.6479 4.82866 11.6395 4.93726 11.6395H5.06258C5.14612 11.6395 5.25472 11.6647 5.34661 11.7236C5.43015 11.7741 5.53876 11.8078 5.63901 11.8498H5.66407C5.76432 11.8919 5.87292 11.8751 5.95646 11.8162C6.04 11.7489 6.14861 11.7152 6.25721 11.7152L6.64985 11.7405C6.73339 11.7405 6.81693 11.7236 6.8587 11.6563H6.87541L7.01743 11.5217L7.0592 11.4797C7.12603 11.3955 7.22628 11.3619 7.32653 11.3535H7.70247C7.80271 11.3535 7.89461 11.2693 7.93638 11.1852C7.97815 11.1011 8.06169 11.0338 8.16194 11.0169L8.32902 10.9833C8.39585 10.9833 8.45433 10.9244 8.4794 10.8487C8.50446 10.7645 8.54623 10.6972 8.60471 10.6468L8.73837 10.5121C8.82191 10.428 8.86368 10.3439 8.88039 10.2429L8.86368 10.2513Z" fill="#969696"/>
</svg>
