<svg width="20" height="20" viewBox="0 0 20 20" fill="none" xmlns="http://www.w3.org/2000/svg">
<path d="M20 12.262V20H15.7134V12.7802C15.7134 10.9666 15.0933 9.72881 13.5417 9.72881C12.3572 9.72881 11.6524 10.563 11.3423 11.3699C11.2292 11.6583 11.2001 12.0598 11.2001 12.4636V20H6.91198C6.91198 20 6.96973 7.77208 6.91198 6.50518H11.1997V8.41801C11.191 8.43232 11.1797 8.44775 11.1715 8.46161H11.1997V8.41801C11.7693 7.49982 12.7867 6.18815 15.0638 6.18815C17.885 6.1881 20 8.1169 20 12.262ZM2.42646 0C0.959506 0 0 1.00695 0 2.33113C0 3.62645 0.931746 4.66397 2.36954 4.66397H2.39818C3.89355 4.66397 4.82352 3.62665 4.82352 2.33113C4.79535 1.00695 3.89355 0 2.42646 0ZM0.254675 20H4.54114V6.50518H0.254675V20Z" fill="#969696"/>
</svg>
